<?xml version="1.0" encoding="UTF-8" standalone="no"?>
<svg xmlns:rdf="http://www.w3.org/1999/02/22-rdf-syntax-ns#" xmlns="http://www.w3.org/2000/svg" viewBox="0 0 24 24" version="1.0" xmlns:cc="http://creativecommons.org/ns#" xmlns:dc="http://purl.org/dc/elements/1.1/" preserveAspectRatio="xMidYMid meet">
 <path d="m15.698 3.6681c-0.66574 0.16112-1.3475 0.7197-1.6723 1.3641-0.68704 1.375 0.05325 3.0506 1.5499 3.5072 0.6977 0.21483 1.5179 0.069833 2.0931-0.37058 0.34618-0.26317 0.72965-0.77878 0.87877-1.1762 0.68171-1.8261-0.99062-3.7811-2.8493-3.3245z"/>
 <path d="m13.771 8.7489c-0.42074 0.096682-0.61248 0.2954-1.2676 1.289-2.7801 4.2001-6.7053 6.9875-11.184 7.9489-0.51128 0.1074-0.54324 0.12353-0.80954 0.3867-0.66574 0.66062-0.6391 1.3964 0.074624 2.0302 0.29293 0.2578 0.20238 0.2578 1.5339-0.03756 2.615-0.58005 4.4897-1.3588 6.3113-2.621 0.3089-0.20946 0.9054-0.63377 1.3261-0.92916l0.77226-0.54782h1.8535c1.0172 0 1.8535 0.01135 1.8535 0.02685 0 0.01614-0.56454 0.95064-1.2516 2.0785l-1.257 2.057 2.466 0.01613 2.466 0.01614 0.18107-0.20409c0.41542-0.47263 0.53792-1.0473 0.31956-1.5038-0.13315-0.27391-0.35683-0.46189-0.82551-0.68748l-0.34086-0.16649 0.66574-1.0956c0.48998-0.811 0.68171-1.1762 0.72431-1.3911 0.06387-0.31151 0.02663-0.6982-0.0905-0.92379-0.11712-0.23094-0.48998-0.51559-0.8415-0.64449-0.30357-0.11282-0.43139-0.12353-1.8321-0.14501l-1.5072-0.01614 0.13315-0.24705c0.07462-0.13427 0.39412-0.61227 0.70835-1.0688 0.54324-0.79489 0.56988-0.8271 0.68171-0.75192 1.7628 1.1655 3.8399 2.1 5.3739 2.4169 0.41542 0.09126 0.65508 0.06983 0.89475-0.06441 0.26097-0.15039 0.33553-0.54782 0.15977-0.84323-0.06925-0.11282-1.0066-0.74654-3.1582-2.143-1.684-1.0906-3.175-2.0359-3.324-2.1057-0.32-0.145-0.581-0.1827-0.81-0.129z"/>
 <path d="m19.969 17.046 0.14912 0.18798h0.94268 0.93736l0.17044 0.22557 0.1651 0.23095-1.0226 0.02685-1.0172 0.02685-0.13847 0.17186-0.13315 0.17724h1.5285c0.83616 0 1.5232-0.01134 1.5232-0.02685 0-0.01134-0.1651-0.28465-0.36216-0.60153l-0.36216-0.58004-1.2676-0.01614-1.2622-0.01134 0.14912 0.18798z"/>
 <path d="m19.853 18.492c-0.20238 0.09126-0.53792 0.4404-0.60715 0.63912-0.14912 0.39207 0 0.99361 0.29293 1.2031 0.37813 0.27391 0.46868 0.28465 2.0825 0.28465h1.5126l0.29826-0.13964c0.21836-0.1074 0.33553-0.20409 0.45271-0.39207 0.13847-0.2202 0.15445-0.28465 0.13847-0.60153-0.02137-0.41355-0.15446-0.6606-0.48999-0.89692l-0.20771-0.14501-1.6563-0.01134c-1.3102-0.01135-1.6883 0-1.8161 0.05912z"/>
</svg>
