<?xml version="1.0" encoding="UTF-8" standalone="no"?>
<svg xmlns:rdf="http://www.w3.org/1999/02/22-rdf-syntax-ns#" xmlns="http://www.w3.org/2000/svg" viewBox="0 0 24 24" version="1.0" xmlns:cc="http://creativecommons.org/ns#" xmlns:dc="http://purl.org/dc/elements/1.1/" preserveAspectRatio="xMidYMid meet">
 <path d="m10.45 4.9798c-0.5835 0.2879-0.8477 0.7006-0.7616 1.1894 0.079889 0.48338 0.57766 0.95047 1.1922 1.1188 0.13519 0.038019 1.2598 0.076037 2.9989 0.097762l2.79 0.038019 0.11675 0.13035c0.15977 0.18466 0.28883 0.57028 0.31341 0.89615l0.0123 0.27156-3.3431 0.038019c-4.9172 0.0542-4.6284 0.0379-5.0832 0.2552-0.4425 0.2064-1.143 0.8202-1.1123 0.9668 0.018436 0.092331 0.41174 0.097758 7.3252 0.11405 5.3464 0.0054 7.3252-0.0054 7.3866-0.04888 0.142-0.103 0.098-0.1899-0.265-0.5375-0.405-0.3911-0.712-0.5594-1.209-0.6736-0.198-0.0488-0.376-0.0923-0.382-0.1031-0.012-0.0109-0.068-0.2226-0.117-0.4779-0.251-1.1841-0.712-2.0911-1.394-2.7374-0.265-0.2498-0.536-0.4454-0.745-0.5377l-0.33185-0.14121h-3.5581l-3.5581 0.00543-0.27654 0.13578z"/>
 <path d="m6.542 11.063c-0.09218 0.13578-0.25196 0.46165-0.35028 0.71692-0.16592 0.41278-0.1905 0.56485-0.21508 1.2112-0.024581 0.63002-0.00615 0.80382 0.10447 1.1949 0.35643 1.2112 1.2414 2.2268 2.4458 2.8026 0.61453 0.29872 1.0877 0.43449 1.7391 0.5051 0.71901 0.07604 8.8676 0.07061 9.5068-0.0054 1.9972-0.24441 3.6073-1.5479 4.105-3.3348 0.29497-1.0482 0.14135-2.1182-0.44246-3.0632l-0.16592-0.277h-8.2839-8.2778l-0.16592 0.24984z"/>
 <path d="m0.44961 9.4993 7.0943-0.306-0.5313 0.5277z"/>
 <path d="m0.23925 11.142 5.939-0.321-0.356 0.629z"/>
 <path d="m0.16734 14.386 5.3264-0.451 0.2774 0.739z"/>
 <path d="m0.1461 12.581 5.4659-0.423l-0.0935 0.761z"/>
 <path d="m0.68864 16.468 5.7735-0.372 0.5088 0.647z"/>
</svg>
