<?xml version="1.0" encoding="UTF-8" standalone="no"?>
<svg
   xmlns:dc="http://purl.org/dc/elements/1.1/"
   xmlns:cc="http://creativecommons.org/ns#"
   xmlns:rdf="http://www.w3.org/1999/02/22-rdf-syntax-ns#"
   xmlns:svg="http://www.w3.org/2000/svg"
   xmlns="http://www.w3.org/2000/svg"
   xmlns:sodipodi="http://sodipodi.sourceforge.net/DTD/sodipodi-0.dtd"
   xmlns:inkscape="http://www.inkscape.org/namespaces/inkscape"
   version="1.0"
   width="367.29269"
   height="292.50168"
   viewBox="0 0 293.83416 234.00134"
   preserveAspectRatio="xMidYMid meet"
   id="svg2"
   inkscape:version="0.48.5 r10040"
   sodipodi:docname="curling_stone.svg">
  <defs
     id="defs14" />
  <sodipodi:namedview
     pagecolor="#ffffff"
     bordercolor="#666666"
     borderopacity="1"
     objecttolerance="10"
     gridtolerance="10"
     guidetolerance="10"
     inkscape:pageopacity="0"
     inkscape:pageshadow="2"
     inkscape:window-width="640"
     inkscape:window-height="480"
     id="namedview12"
     showgrid="false"
     fit-margin-top="0"
     fit-margin-left="0"
     fit-margin-right="0"
     fit-margin-bottom="0"
     inkscape:zoom="0.45085449"
     inkscape:cx="183.69531"
     inkscape:cy="146.25167"
     inkscape:window-x="0"
     inkscape:window-y="0"
     inkscape:window-maximized="0"
     inkscape:current-layer="svg2" />
  <metadata
     id="metadata4">
Created by potrace 1.13, written by Peter Selinger 2001-2015
<rdf:RDF>
  <cc:Work
     rdf:about="">
    <dc:format>image/svg+xml</dc:format>
    <dc:type
       rdf:resource="http://purl.org/dc/dcmitype/StillImage" />
  </cc:Work>
</rdf:RDF>
</metadata>
  <g
     transform="matrix(0.1,0,0,-0.1,-109.04375,373)"
     id="g6">
    <path
       d="m 1820,3704 c -95,-53 -138,-129 -124,-219 13,-89 94,-175 194,-206 22,-7 205,-14 488,-18 l 454,-7 19,-24 c 26,-34 47,-105 51,-165 l 2,-50 -544,-7 c -800,-10 -753,-7 -827,-47 -72,-38 -186,-151 -181,-178 3,-17 67,-18 1192,-21 870,-1 1192,1 1202,9 23,19 16,35 -43,99 -66,72 -116,103 -197,124 -32,9 -61,17 -62,19 -2,2 -11,41 -19,88 -41,218 -116,385 -227,504 -43,46 -87,82 -121,99 l -54,26 -579,0 -579,-1 -45,-25 z"
       id="path8"/>
    <path
       d="m 1184,2584 c -15,-25 -41,-85 -57,-132 -27,-76 -31,-104 -35,-223 -4,-116 -1,-148 17,-220 58,-223 202,-410 398,-516 100,-55 177,-80 283,-93 117,-14 1443,-13 1547,1 325,45 587,285 668,614 48,193 23,390 -72,564 l -27,51 -1348,0 -1347,0 -27,-46 z"
       id="path10"/>
  </g>
</svg>
