<?xml version="1.0" encoding="UTF-8" standalone="no"?>
<svg
   xmlns:dc="http://purl.org/dc/elements/1.1/"
   xmlns:cc="http://creativecommons.org/ns#"
   xmlns:rdf="http://www.w3.org/1999/02/22-rdf-syntax-ns#"
   xmlns:svg="http://www.w3.org/2000/svg"
   xmlns="http://www.w3.org/2000/svg"
   xmlns:xlink="http://www.w3.org/1999/xlink"
   xmlns:sodipodi="http://sodipodi.sourceforge.net/DTD/sodipodi-0.dtd"
   xmlns:inkscape="http://www.inkscape.org/namespaces/inkscape"
   version="1.0"
   width="856.06866"
   height="292.50168"
   viewBox="0 0 684.85494 234.00134"
   preserveAspectRatio="xMidYMid meet"
   id="svg2"
   inkscape:version="0.48.4 r9939"
   sodipodi:docname="curling_stone_moving.svg">
  <defs
     id="defs14">
    <linearGradient
       id="linearGradient4408">
      <stop
         style="stop-color:#000000;stop-opacity:0;"
         offset="0"
         id="stop4410" />
      <stop
         style="stop-color:#000000;stop-opacity:1;"
         offset="1"
         id="stop4412" />
    </linearGradient>
    <marker
       inkscape:stockid="Arrow2Lend"
       orient="auto"
       refY="0.0"
       refX="0.0"
       id="Arrow2Lend"
       style="overflow:visible;">
      <path
         id="path3805"
         style="fill-rule:evenodd;stroke-width:0.62500000;stroke-linejoin:round;"
         d="M 8.7185878,4.0337352 L -2.2072895,0.016013256 L 8.7185884,-4.0017078 C 6.9730900,-1.6296469 6.9831476,1.6157441 8.7185878,4.0337352 z "
         transform="scale(1.1) rotate(180) translate(1,0)" />
    </marker>
    <linearGradient
       inkscape:collect="always"
       xlink:href="#linearGradient4408-4"
       id="linearGradient4414-7"
       x1="41.76804"
       y1="53.841885"
       x2="326.27319"
       y2="53.841885"
       gradientUnits="userSpaceOnUse"
       gradientTransform="matrix(0.80000001,0,0,0.80000001,144.3299,41.237111)" />
    <linearGradient
       id="linearGradient4408-4">
      <stop
         style="stop-color:#000000;stop-opacity:0;"
         offset="0"
         id="stop4410-0" />
      <stop
         style="stop-color:#000000;stop-opacity:1;"
         offset="1"
         id="stop4412-9" />
    </linearGradient>
    <linearGradient
       inkscape:collect="always"
       xlink:href="#linearGradient4408-8"
       id="linearGradient4414-8"
       x1="41.76804"
       y1="53.841885"
       x2="326.27319"
       y2="53.841885"
       gradientUnits="userSpaceOnUse"
       gradientTransform="matrix(0.80000001,0,0,0.80000001,144.3299,41.237111)" />
    <linearGradient
       id="linearGradient4408-8">
      <stop
         style="stop-color:#000000;stop-opacity:0;"
         offset="0"
         id="stop4410-2" />
      <stop
         style="stop-color:#000000;stop-opacity:1;"
         offset="1"
         id="stop4412-4" />
    </linearGradient>
    <linearGradient
       inkscape:collect="always"
       xlink:href="#linearGradient4408-7"
       id="linearGradient4414-1"
       x1="41.76804"
       y1="53.841885"
       x2="326.27319"
       y2="53.841885"
       gradientUnits="userSpaceOnUse"
       gradientTransform="matrix(0.80000001,0,0,0.80000001,144.3299,41.237111)" />
    <linearGradient
       id="linearGradient4408-7">
      <stop
         style="stop-color:#000000;stop-opacity:0;"
         offset="0"
         id="stop4410-1" />
      <stop
         style="stop-color:#000000;stop-opacity:1;"
         offset="1"
         id="stop4412-1" />
    </linearGradient>
    <linearGradient
       inkscape:collect="always"
       xlink:href="#linearGradient4408-1"
       id="linearGradient4414-6"
       x1="41.76804"
       y1="53.841885"
       x2="326.27319"
       y2="53.841885"
       gradientUnits="userSpaceOnUse"
       gradientTransform="matrix(0.80000001,0,0,0.80000001,144.3299,41.237111)" />
    <linearGradient
       id="linearGradient4408-1">
      <stop
         style="stop-color:#000000;stop-opacity:0;"
         offset="0"
         id="stop4410-4" />
      <stop
         style="stop-color:#000000;stop-opacity:1;"
         offset="1"
         id="stop4412-2" />
    </linearGradient>
  </defs>
  <sodipodi:namedview
     pagecolor="#ffffff"
     bordercolor="#666666"
     borderopacity="1"
     objecttolerance="10"
     gridtolerance="10"
     guidetolerance="10"
     inkscape:pageopacity="0"
     inkscape:pageshadow="2"
     inkscape:window-width="1536"
     inkscape:window-height="801"
     id="namedview12"
     showgrid="false"
     fit-margin-top="0"
     fit-margin-left="0"
     fit-margin-right="0"
     fit-margin-bottom="0"
     inkscape:zoom="1.84"
     inkscape:cx="146.46328"
     inkscape:cy="64.957392"
     inkscape:window-x="-8"
     inkscape:window-y="-8"
     inkscape:window-maximized="1"
     inkscape:current-layer="svg2"
     inkscape:snap-global="false" />
  <metadata
     id="metadata4">
Created by potrace 1.13, written by Peter Selinger 2001-2015
<rdf:RDF>
  <cc:Work
     rdf:about="">
    <dc:format>image/svg+xml</dc:format>
    <dc:type
       rdf:resource="http://purl.org/dc/dcmitype/StillImage" />
  </cc:Work>
</rdf:RDF>
</metadata>
  <g
     transform="matrix(0.1,0,0,-0.1,281.97703,373)"
     id="g6">
    <path
       d="m 1820,3704 c -95,-53 -138,-129 -124,-219 13,-89 94,-175 194,-206 22,-7 205,-14 488,-18 l 454,-7 19,-24 c 26,-34 47,-105 51,-165 l 2,-50 -544,-7 c -800,-10 -753,-7 -827,-47 -72,-38 -186,-151 -181,-178 3,-17 67,-18 1192,-21 870,-1 1192,1 1202,9 23,19 16,35 -43,99 -66,72 -116,103 -197,124 -32,9 -61,17 -62,19 -2,2 -11,41 -19,88 -41,218 -116,385 -227,504 -43,46 -87,82 -121,99 l -54,26 -579,0 -579,-1 -45,-25 z"
       id="path8"
       inkscape:connector-curvature="0" />
    <path
       d="m 1184,2584 c -15,-25 -41,-85 -57,-132 -27,-76 -31,-104 -35,-223 -4,-116 -1,-148 17,-220 58,-223 202,-410 398,-516 100,-55 177,-80 283,-93 117,-14 1443,-13 1547,1 325,45 587,285 668,614 48,193 23,390 -72,564 l -27,51 -1348,0 -1347,0 -27,-46 z"
       id="path10"
       inkscape:connector-curvature="0" />
  </g>
  <path
     style="fill-opacity:1;stroke:none"
     d="M -51.794537,83.931866 413.22215,76.445991 399.41935,91.090923 z"
     id="path4406"
     inkscape:connector-curvature="0"
     sodipodi:nodetypes="cccc" />
  <path
     style="fill-opacity:1;stroke:#000000;stroke-width:0.80000001px;stroke-linecap:butt;stroke-linejoin:miter;stroke-opacity:1"
     d="m -30.675315,123.36474 418.007075,-10.02652 -6.59313,16.60512 z"
     id="path4406-4"
     inkscape:connector-curvature="0"
     sodipodi:nodetypes="cccc" />
  <path
     style="fill-opacity:1;stroke:#000000;stroke-width:0.80000001px;stroke-linecap:butt;stroke-linejoin:miter;stroke-opacity:1"
     d="m -126.72129,182.99282 506.10271,-10.84707 4.6933,18.24735 z"
     id="path4406-5"
     inkscape:connector-curvature="0"
     sodipodi:nodetypes="cccc" />
  <path
     style="fill-opacity:1;stroke:#000000;stroke-width:0.80000001px;stroke-linecap:butt;stroke-linejoin:miter;stroke-opacity:1"
     d="m -22.137778,210.24068 411.415798,-7.99182 12.31785,14.37909 z"
     id="path4406-7"
     inkscape:connector-curvature="0"
     sodipodi:nodetypes="cccc"
     inkscape:transform-center-x="25.773196"
     inkscape:transform-center-y="-6.6855687" />
  <path
     style="fill-opacity:1;stroke:#000000;stroke-width:0.80000001px;stroke-linecap:butt;stroke-linejoin:miter;stroke-opacity:1"
     d="m -63.22869,150.32898 443.15076,-8.49464 -0.46247,16.1406 z"
     id="path4406-3"
     inkscape:connector-curvature="0"
     sodipodi:nodetypes="cccc" />
</svg>
