<?xml version="1.0" encoding="UTF-8" standalone="no"?>
<svg
   xmlns:dc="http://purl.org/dc/elements/1.1/"
   xmlns:cc="http://creativecommons.org/ns#"
   xmlns:rdf="http://www.w3.org/1999/02/22-rdf-syntax-ns#"
   xmlns:svg="http://www.w3.org/2000/svg"
   xmlns="http://www.w3.org/2000/svg"
   xmlns:sodipodi="http://sodipodi.sourceforge.net/DTD/sodipodi-0.dtd"
   xmlns:inkscape="http://www.inkscape.org/namespaces/inkscape"
   version="1.0"
   width="563.27502"
   height="396.06287"
   viewBox="0 0 450.62002 316.85029"
   preserveAspectRatio="xMidYMid meet"
   id="svg2"
   inkscape:version="0.48.5 r10040"
   sodipodi:docname="curling_draw.svg">
  <defs
     id="defs18" />
  <sodipodi:namedview
     pagecolor="#ffffff"
     bordercolor="#666666"
     borderopacity="1"
     objecttolerance="10"
     gridtolerance="10"
     guidetolerance="10"
     inkscape:pageopacity="0"
     inkscape:pageshadow="2"
     inkscape:window-width="876"
     inkscape:window-height="693"
     id="namedview16"
     showgrid="false"
     fit-margin-top="0"
     fit-margin-left="0"
     fit-margin-right="0"
     fit-margin-bottom="0"
     inkscape:zoom="0.73455078"
     inkscape:cx="280.90696"
     inkscape:cy="198.75"
     inkscape:window-x="0"
     inkscape:window-y="0"
     inkscape:window-maximized="0"
     inkscape:current-layer="svg2" />
  <metadata
     id="metadata4">
Created by potrace 1.13, written by Peter Selinger 2001-2015
<rdf:RDF>
  <cc:Work
     rdf:about="">
    <dc:format>image/svg+xml</dc:format>
    <dc:type
       rdf:resource="http://purl.org/dc/dcmitype/StillImage" />
  </cc:Work>
</rdf:RDF>
</metadata>
  <g
     transform="matrix(0.1,0,0,-0.1,-95.274434,409.8503)"
     id="g6">
    <path
       d="m 3895,4086 c -125,-30 -253,-134 -314,-254 -129,-256 10,-568 291,-653 131,-40 285,-13 393,69 65,49 137,145 165,219 128,340 -186,704 -535,619 z"
       id="path8"/>
    <path
       d="m 3533,3140 c -79,-18 -115,-55 -238,-240 -522,-782 -1259,-1301 -2100,-1480 -96,-20 -102,-23 -152,-72 -125,-123 -120,-260 14,-378 55,-48 38,-48 288,7 491,108 843,253 1185,488 58,39 170,118 249,173 l 145,102 348,0 c 191,0 348,-2 348,-5 0,-3 -106,-177 -235,-387 l -236,-383 463,-3 463,-3 34,38 c 78,88 101,195 60,280 -25,51 -67,86 -155,128 l -64,31 125,204 c 92,151 128,219 136,259 12,58 5,130 -17,172 -22,43 -92,96 -158,120 -57,21 -81,23 -344,27 l -283,3 25,46 c 14,25 74,114 133,199 102,148 107,154 128,140 331,-217 721,-391 1009,-450 78,-17 123,-13 168,12 49,28 63,102 30,157 -13,21 -189,139 -593,399 -316,203 -596,379 -624,392 -60,27 -109,34 -152,24 z"
       id="path10"/>
    <path
       d="m 4697,1595 28,-35 177,0 176,0 32,-42 31,-43 -192,-5 -191,-5 -26,-32 -25,-33 287,0 c 157,0 286,2 286,5 0,2 -31,53 -68,112 l -68,108 -238,3 -237,2 28,-35 z"
       id="path12"/>
    <path
       d="m 4675,1326 c -38,-17 -101,-82 -114,-119 -28,-73 0,-185 55,-224 71,-51 88,-53 391,-53 l 284,0 56,26 c 41,20 63,38 85,73 26,41 29,53 26,112 -4,77 -29,123 -92,167 l -39,27 -311,2 c -246,2 -317,0 -341,-11 z"
       id="path14"/>
  </g>
</svg>
