<?xml version="1.0" encoding="UTF-8" standalone="no"?>
<!-- Created with Inkscape (http://www.inkscape.org/) -->

<svg
   xmlns:dc="http://purl.org/dc/elements/1.1/"
   xmlns:cc="http://creativecommons.org/ns#"
   xmlns:rdf="http://www.w3.org/1999/02/22-rdf-syntax-ns#"
   xmlns:svg="http://www.w3.org/2000/svg"
   xmlns="http://www.w3.org/2000/svg"
   xmlns:xlink="http://www.w3.org/1999/xlink"
   xmlns:sodipodi="http://sodipodi.sourceforge.net/DTD/sodipodi-0.dtd"
   xmlns:inkscape="http://www.inkscape.org/namespaces/inkscape"
   width="562.20673"
   height="1681.2831"
   id="svg2"
   version="1.1"
   inkscape:version="0.48.5 r10040"
   sodipodi:docname="draw.svg">
  <defs
     id="defs4">
    <linearGradient
       inkscape:collect="always"
       id="linearGradient3873">
      <stop
         style="stop-color:#030000;stop-opacity:1;"
         offset="0"
         id="stop3875" />
      <stop
         style="stop-color:#030000;stop-opacity:0;"
         offset="1"
         id="stop3877" />
    </linearGradient>
    <linearGradient
       inkscape:collect="always"
       xlink:href="#linearGradient3873"
       id="linearGradient3879"
       x1="300"
       y1="1292.3622"
       x2="300"
       y2="792.36218"
       gradientUnits="userSpaceOnUse"
       gradientTransform="matrix(1,0,0,1.2337662,0,-70.682068)" />
  </defs>
  <sodipodi:namedview
     id="base"
     pagecolor="#ffffff"
     bordercolor="#666666"
     borderopacity="1.0"
     inkscape:pageopacity="0.0"
     inkscape:pageshadow="2"
     inkscape:zoom="0.49"
     inkscape:cx="263.3704"
     inkscape:cy="532.1467"
     inkscape:document-units="px"
     inkscape:current-layer="layer1"
     showgrid="true"
     inkscape:snap-global="true"
     inkscape:window-width="1284"
     inkscape:window-height="1516"
     inkscape:window-x="52"
     inkscape:window-y="52"
     inkscape:window-maximized="0"
     fit-margin-top="0"
     fit-margin-left="0"
     fit-margin-right="0"
     fit-margin-bottom="0">
    <inkscape:grid
       type="xygrid"
       id="grid2985"
       empspacing="5"
       visible="true"
       enabled="true"
       snapvisiblegridlinesonly="true"
       originx="-18.896646px"
       originy="200px" />
  </sodipodi:namedview>
  <metadata
     id="metadata7">
    <rdf:RDF>
      <cc:Work
         rdf:about="">
        <dc:format>image/svg+xml</dc:format>
        <dc:type
           rdf:resource="http://purl.org/dc/dcmitype/StillImage" />
        <dc:title></dc:title>
      </cc:Work>
    </rdf:RDF>
  </metadata>
  <g
     inkscape:label="Layer 1"
     inkscape:groupmode="layer"
     id="layer1"
     transform="translate(-18.896646,428.92085)">
    <path
       sodipodi:type="arc"
       style="fill:#ff0000;fill-opacity:1;stroke:none"
       id="path2987"
       sodipodi:cx="307.74084"
       sodipodi:cy="303.30286"
       sodipodi:rx="106.78331"
       sodipodi:ry="105.99524"
       d="m 414.52415,303.30286 c 0,58.53955 -47.80851,105.99524 -106.78331,105.99524 -58.97479,0 -106.78331,-47.45569 -106.78331,-105.99524 0,-58.53956 47.80852,-105.99524 106.78331,-105.99524 58.9748,0 106.78331,47.45568 106.78331,105.99524 z"
       transform="matrix(2.2475422,0,0,2.2642526,-391.66055,-394.39211)" />
    <rect
       style="fill:#030000;fill-opacity:1;stroke:none"
       id="rect3757"
       width="560"
       height="10"
       x="20"
       y="-427.63782" />
    <path
       sodipodi:type="arc"
       style="fill:#ffffff;fill-opacity:1;stroke:none"
       id="path2987-1"
       sodipodi:cx="307.74084"
       sodipodi:cy="303.30286"
       sodipodi:rx="106.78331"
       sodipodi:ry="105.99524"
       d="m 414.52415,303.30286 c 0,58.53955 -47.80851,105.99524 -106.78331,105.99524 -58.97479,0 -106.78331,-47.45569 -106.78331,-105.99524 0,-58.53956 47.80852,-105.99524 106.78331,-105.99524 58.9748,0 106.78331,47.45568 106.78331,105.99524 z"
       transform="matrix(1.4983614,0,0,1.5095018,-161.10702,-165.47401)" />
    <path
       sodipodi:type="arc"
       style="fill:#0021ff;fill-opacity:1;stroke:none"
       id="path2987-1-7-4"
       sodipodi:cx="307.74084"
       sodipodi:cy="303.30286"
       sodipodi:rx="106.78331"
       sodipodi:ry="105.99524"
       d="m 414.52415,303.30286 c 0,58.53955 -47.80851,105.99524 -106.78331,105.99524 -58.97479,0 -106.78331,-47.45569 -106.78331,-105.99524 0,-58.53956 47.80852,-105.99524 106.78331,-105.99524 58.9748,0 106.78331,47.45568 106.78331,105.99524 z"
       transform="matrix(0.74918074,0,0,0.75475088,69.446485,63.444085)" />
    <path
       sodipodi:type="arc"
       style="fill:#ffffff;fill-opacity:1;stroke:none"
       id="path2987-1-7-4-0"
       sodipodi:cx="307.74084"
       sodipodi:cy="303.30286"
       sodipodi:rx="106.78331"
       sodipodi:ry="105.99524"
       d="m 414.52415,303.30286 c 0,58.53955 -47.80851,105.99524 -106.78331,105.99524 -58.97479,0 -106.78331,-47.45569 -106.78331,-105.99524 0,-58.53956 47.80852,-105.99524 106.78331,-105.99524 58.9748,0 106.78331,47.45568 106.78331,105.99524 z"
       transform="matrix(0.28094276,0,0,0.28303157,213.54244,206.5179)" />
    <path
       style="fill:none;stroke:#000000;stroke-width:2.56605053;stroke-linecap:butt;stroke-linejoin:miter;stroke-miterlimit:4;stroke-opacity:1;stroke-dasharray:none"
       d="m 300,-427.63782 c 0,1070 0,1070 0,1070"
       id="path3759"
       inkscape:connector-curvature="0" />
    <path
       style="fill:none;stroke:#000000;stroke-width:2.20670891;stroke-linecap:butt;stroke-linejoin:miter;stroke-miterlimit:4;stroke-opacity:1;stroke-dasharray:none"
       d="m 20,292.36218 c 560,0 560,0 560,0"
       id="path3761"
       inkscape:connector-curvature="0" />
    <rect
       style="fill:#030000;fill-opacity:1;stroke:none"
       id="rect3757-4"
       width="80"
       height="10"
       x="260"
       y="642.36218" />
    <rect
       style="fill:url(#linearGradient3879);fill-opacity:1;stroke:none"
       id="rect3871"
       width="560"
       height="950"
       x="20"
       y="302.36218" />
  </g>
</svg>
