<?xml version="1.0" encoding="UTF-8" standalone="no"?>
<!-- Created with Inkscape (http://www.inkscape.org/) -->

<svg
   xmlns:dc="http://purl.org/dc/elements/1.1/"
   xmlns:cc="http://creativecommons.org/ns#"
   xmlns:rdf="http://www.w3.org/1999/02/22-rdf-syntax-ns#"
   xmlns:svg="http://www.w3.org/2000/svg"
   xmlns="http://www.w3.org/2000/svg"
   xmlns:sodipodi="http://sodipodi.sourceforge.net/DTD/sodipodi-0.dtd"
   xmlns:inkscape="http://www.inkscape.org/namespaces/inkscape"
   width="398.62366"
   height="398.51254"
   id="svg2"
   version="1.1"
   inkscape:version="0.48.4 r9939"
   sodipodi:docname="spinner.svg">
  <defs
     id="defs4" />
  <sodipodi:namedview
     id="base"
     pagecolor="#ffffff"
     bordercolor="#666666"
     borderopacity="1.0"
     inkscape:pageopacity="0.0"
     inkscape:pageshadow="2"
     inkscape:zoom="0.92"
     inkscape:cx="323.31403"
     inkscape:cy="202.52054"
     inkscape:document-units="px"
     inkscape:current-layer="layer1"
     showgrid="true"
     inkscape:snap-global="true"
     inkscape:window-width="1284"
     inkscape:window-height="650"
     inkscape:window-x="170"
     inkscape:window-y="101"
     inkscape:window-maximized="0"
     fit-margin-top="0"
     fit-margin-left="0"
     fit-margin-right="0"
     fit-margin-bottom="0"
     objecttolerance="20"
     guidetolerance="20"
     inkscape:snap-grids="true"
     inkscape:snap-to-guides="false"
     inkscape:snap-nodes="false">
    <inkscape:grid
       type="xygrid"
       id="grid2985"
       empspacing="5"
       visible="true"
       enabled="true"
       snapvisiblegridlinesonly="true"
       originx="-49.999715px"
       originy="-1.0861465px"
       units="px"
       spacingx="10px"
       spacingy="10px" />
  </sodipodi:namedview>
  <metadata
     id="metadata7">
    <rdf:RDF>
      <cc:Work
         rdf:about="">
        <dc:format>image/svg+xml</dc:format>
        <dc:type
           rdf:resource="http://purl.org/dc/dcmitype/StillImage" />
        <dc:title />
      </cc:Work>
    </rdf:RDF>
  </metadata>
  <g
     inkscape:label="Layer 1"
     inkscape:groupmode="layer"
     id="layer1"
     transform="translate(336.6879,323.3238)">
    <path
       sodipodi:type="arc"
       style="fill:#ffffff;fill-opacity:1;stroke:#000000;stroke-width:2.21642804;stroke-miterlimit:4;stroke-opacity:1;stroke-dasharray:none"
       id="path2987"
       sodipodi:cx="307.74084"
       sodipodi:cy="303.30286"
       sodipodi:rx="106.78331"
       sodipodi:ry="105.99524"
       d="m 414.52415,303.30286 c 0,58.53955 -47.80851,105.99524 -106.78331,105.99524 -58.97479,0 -106.78331,-47.45569 -106.78331,-105.99524 0,-58.53956 47.80852,-105.99524 106.78331,-105.99524 58.9748,0 106.78331,47.45568 106.78331,105.99524 z"
       transform="matrix(1.8473508,0,0,1.8603065,-705.86941,-688.29268)" />
    <path
       sodipodi:type="arc"
       style="fill:#ff0000;fill-opacity:1;stroke:#000000;stroke-width:0.99975014;stroke-miterlimit:4;stroke-opacity:1;stroke-dasharray:none"
       id="path2987-1"
       sodipodi:cx="307.74084"
       sodipodi:cy="303.30286"
       sodipodi:rx="108.02577"
       sodipodi:ry="105.99524"
       d="m 415.76662,303.30286 c 0,58.53955 -48.36479,105.99524 -108.02578,105.99524 -59.66098,0 -108.02577,-47.45569 -108.02577,-105.99524 0,-58.53956 48.36479,-105.99524 108.02577,-105.99524 59.66099,0 108.02578,47.45568 108.02578,105.99524 z"
       transform="matrix(1.395937,0,0,1.4188596,-565.74492,-554.166)" />
    <g
       id="g3778"
       transform="matrix(1.0279854,0,0,1.1190486,396.61732,-362.69166)">
      <path
         style="fill:#000000;fill-opacity:1;stroke:none"
         d="m 176.6875,76.375 c -9.70795,0.535663 -17.4375,9.299483 -17.4375,20 l 0,160 c 0,11.04569 8.22765,20 18.375,20 10.14735,0 18.375,-8.95431 18.375,-20 l 0,-160 c 0,-11.045695 -8.22765,-20 -18.375,-20 -0.3171,0 -0.62434,-0.01728 -0.9375,0 z"
         transform="matrix(1.0885299,0,0,1,-713.3444,36.001608)"
         id="rect2996"
         inkscape:connector-curvature="0" />
    </g>
  </g>
</svg>
